<svg xmlns="http://www.w3.org/2000/svg" xmlns:xlink="http://www.w3.org/1999/xlink" version="1.1" id="Layer_1" x="0px" y="0px" width="100%" viewBox="0 0 353 276" enable-background="new 0 0 353 276" xml:space="preserve">


<path fill="white" opacity="1.000000" stroke="none" d=" M143.066406,94.115425   C154.930054,80.053177 166.707657,66.344696 178.782135,52.290672   C194.978775,71.148796 211.091614,89.909332 227.453552,108.959923   C220.817154,116.684235 214.461151,124.082176 207.814987,131.817841   C197.929916,120.354195 188.425690,109.332214 178.603439,97.941406   C175.049347,102.088547 171.844162,105.828575 168.388458,109.860909   C191.341812,136.590622 214.090790,163.082336 237.145187,189.929703   C230.946136,197.166229 224.800110,204.350174 218.643555,211.525070   C213.004959,218.096390 207.475250,224.768478 201.620010,231.141129   C200.264633,232.616318 197.795868,233.804062 195.812485,233.845871   C183.991013,234.095047 172.160416,234.052933 160.336258,233.878891   C158.574036,233.852936 156.260086,233.113113 155.164398,231.860901   C143.106033,218.079819 131.238541,204.131729 118.998245,189.854416   C128.811844,178.458511 138.583206,167.111664 148.616104,155.461105   C155.215179,163.122040 161.488754,170.405090 168.036804,178.006790   C164.813965,181.843384 161.745544,185.496170 158.240234,189.669037   C164.426498,196.937195 170.577164,204.266403 176.932831,211.413300   C177.385849,211.922745 179.862015,211.555771 180.517685,210.816269   C185.771820,204.890244 190.702667,198.677048 195.973038,192.766251   C198.258041,190.203583 196.815887,188.764709 195.214722,186.904449   C174.257263,162.555847 153.396240,138.123718 132.325027,113.874168   C129.673172,110.822311 129.479187,108.971817 132.396225,106.141708   C136.158142,102.491928 139.472977,98.381332 143.066406,94.115425  z"/>
<path fill="white" opacity="1.000000" stroke="none" d=" M299.931763,116.949364   C282.390320,137.367996 265.069153,157.508530 247.442032,178.004822   C237.421036,166.348129 227.799240,155.155792 217.852097,143.585007   C224.259079,136.033005 230.578995,128.583618 237.317139,120.641266   C240.673813,124.437172 243.913864,128.101196 247.554276,132.217972   C249.581223,130.085449 251.678452,128.062302 253.563461,125.857712   C257.505310,121.247589 261.270660,116.485481 265.256195,111.914581   C266.262421,110.760567 267.812958,109.339600 269.134491,109.317749   C281.210388,109.118027 293.290985,109.200371 306.414398,109.200371   C303.884003,112.219086 302.018036,114.445168 299.931763,116.949364  z"/>
<path fill="white" opacity="1.000000" stroke="none" d=" M121.783775,124.181580   C127.538589,130.873520 133.058212,137.301575 138.890900,144.094223   C129.066147,155.532211 119.359093,166.833176 109.290520,178.555008   C89.672539,155.711807 70.407784,133.279907 50.462666,110.055771   C56.208649,110.055771 61.062706,110.055618 65.916763,110.055847   C67.749626,110.055931 69.637535,110.347008 71.406601,110.011337   C85.077934,107.417259 94.994736,112.578285 102.113663,124.240074   C103.905411,127.175194 106.578552,129.572266 109.367905,132.824326   C112.196892,129.569275 114.893799,126.688126 117.323196,123.596756   C119.088379,121.350578 120.269020,122.148880 121.783775,124.181580  z"/>
</svg>